<?xml version="1.0" standalone="no"?>
<!DOCTYPE svg PUBLIC "-//W3C//DTD SVG 20010904//EN"
 "http://www.w3.org/TR/2001/REC-SVG-20010904/DTD/svg10.dtd">
<svg version="1.0" xmlns="http://www.w3.org/2000/svg"
 width="800.000000pt" height="800.000000pt" viewBox="0 0 800.000000 800.000000"
 preserveAspectRatio="xMidYMid meet">
<metadata>
Created by potrace 1.14, written by Peter Selinger 2001-2017
</metadata>
<g transform="translate(0.000000,800.000000) scale(0.100000,-0.100000)"
fill="#000000" stroke="none">
<path d="M3795 7486 c-153 -51 -437 -160 -548 -210 -29 -13 -81 -36 -117 -51
-94 -39 -549 -265 -655 -326 -49 -28 -136 -79 -193 -113 -56 -33 -121 -72
-145 -85 -23 -13 -139 -88 -257 -166 -322 -213 -593 -414 -869 -645 -63 -52
-128 -106 -145 -119 -17 -14 -61 -52 -97 -85 -37 -34 -111 -99 -165 -146 -119
-104 -421 -389 -526 -498 l-78 -80 0 -115 c0 -330 71 -819 180 -1242 90 -349
95 -365 202 -665 69 -191 91 -245 208 -520 77 -180 233 -502 316 -653 303
-551 571 -984 632 -1019 27 -16 332 -91 537 -132 71 -14 346 -58 540 -86 583
-84 1721 -91 2370 -15 66 8 183 21 260 30 212 25 604 81 760 110 77 15 203 37
279 51 76 13 154 32 173 41 41 19 79 65 213 258 540 776 909 1647 1144 2698
86 386 186 1035 186 1212 0 47 -4 54 -66 125 -221 250 -514 536 -745 727 -41
33 -103 85 -139 115 -55 45 -189 148 -305 235 -171 128 -569 387 -805 525
-428 250 -969 515 -1517 744 -318 132 -379 154 -430 154 -21 -1 -110 -25 -198
-54z m258 -656 c61 -60 132 -89 232 -97 90 -7 223 11 316 42 40 14 79 25 86
25 10 0 -12 -50 -62 -145 -86 -164 -89 -156 38 -131 121 24 276 48 287 44 6
-2 -16 -26 -49 -53 -68 -56 -75 -68 -61 -96 13 -23 33 -24 160 -4 98 15 170
19 170 10 0 -3 -27 -46 -60 -95 -59 -88 -59 -88 -41 -112 l19 -23 115 29 c148
36 158 34 118 -21 -36 -50 -37 -54 -11 -78 18 -16 23 -17 89 0 107 26 117 18
43 -37 -71 -53 -141 -82 -236 -98 -55 -10 -74 -9 -123 5 -82 24 -121 45 -278
155 -238 166 -313 194 -498 188 -106 -3 -134 -8 -214 -36 l-93 -33 -92 32
c-78 28 -111 34 -204 37 -63 2 -135 -1 -165 -7 -80 -17 -205 -83 -347 -183
-70 -49 -156 -103 -192 -121 -60 -30 -72 -32 -165 -32 -86 1 -109 4 -164 28
-35 15 -89 46 -119 69 -46 35 -52 44 -35 46 12 2 49 -4 83 -13 102 -27 132 0
80 72 -16 24 -30 46 -30 48 0 11 46 4 152 -22 l110 -27 19 23 c18 22 18 23
-42 112 -33 50 -59 94 -57 98 2 4 46 1 98 -5 219 -29 217 -29 230 -3 12 22 9
27 -55 86 -37 35 -66 65 -64 67 2 2 85 -12 184 -30 99 -18 190 -33 203 -33 21
-1 17 9 -54 145 -88 167 -94 156 61 109 76 -23 110 -28 215 -29 159 -1 208 14
288 90 31 29 59 53 60 54 2 0 27 -23 55 -50z m-114 -605 l61 -25 61 25 c34 13
76 27 94 31 30 5 35 2 59 -32 14 -21 26 -42 26 -46 0 -5 -108 -8 -240 -8 -132
0 -240 3 -240 8 0 4 12 25 26 46 24 34 29 37 59 32 18 -4 60 -18 94 -31z m271
-122 c0 -3 -7 -15 -17 -25 -14 -16 -34 -18 -191 -18 -149 0 -178 2 -194 17
-10 9 -18 20 -18 25 0 4 95 8 210 8 116 0 210 -3 210 -7z m-12 -129 c42 -25
44 -28 27 -40 -24 -18 -398 -20 -442 -3 -27 10 -28 11 -8 26 48 36 79 42 229
43 144 0 151 -1 194 -26z m19 -136 c18 -13 31 -27 30 -33 -2 -6 -90 -11 -228
-13 -281 -3 -307 2 -236 47 29 19 47 21 216 21 175 0 186 -1 218 -22z m32
-127 l34 -18 -39 -27 -39 -26 -204 0 c-189 0 -206 2 -237 21 -41 25 -42 34 -6
53 21 12 70 15 242 15 188 0 219 -2 249 -18z m-1973 -67 c-12 -100 -60 -198
-139 -281 -39 -40 -75 -72 -80 -70 -16 5 -8 112 12 177 25 81 71 142 142 189
34 23 64 41 67 41 2 0 2 -25 -2 -56z m3773 -69 c27 -14 41 -39 41 -77 0 -16
-10 -18 -72 -18 -40 0 -96 -3 -124 -6 l-51 -6 -56 -114 -57 -114 -24 15 c-65
43 -69 102 -11 137 30 17 35 25 35 58 0 69 55 114 158 129 89 13 131 12 161
-4z m-1780 -4 c10 -7 4 -16 -29 -40 l-43 -31 -189 0 c-195 0 -217 4 -273 46
-17 13 -18 16 -5 24 19 12 520 13 539 1z m-55 -147 c3 -9 6 -16 6 -17 0 -1
-99 -2 -220 -2 -210 0 -238 4 -213 28 3 4 100 7 214 7 179 0 208 -2 213 -16z
m-2283 -56 c17 -65 6 -202 -21 -266 -28 -65 -41 -58 -66 38 -25 99 -9 193 44
253 23 26 30 21 43 -25z m2029 -27 c0 -16 -112 -164 -143 -189 -137 -111 -211
-228 -211 -336 0 -81 16 -130 64 -204 l39 -62 -15 -42 c-8 -24 -15 -75 -16
-114 -1 -81 26 -149 83 -216 l32 -38 -31 -67 c-38 -84 -60 -164 -72 -267 -5
-43 -11 -80 -13 -82 -4 -4 -162 -35 -372 -73 -66 -12 -130 -24 -141 -26 -14
-3 -24 1 -29 13 -3 9 -64 170 -135 357 -71 187 -187 495 -259 684 -72 189
-131 347 -131 352 0 10 391 137 568 184 239 64 396 95 667 128 60 8 115 7 115
-2z m361 -21 c172 -24 260 -42 429 -86 278 -73 640 -189 640 -205 0 -12 -526
-1399 -533 -1406 -3 -2 -38 3 -78 11 -41 9 -153 29 -249 46 -96 17 -182 33
-191 36 -12 3 -18 23 -23 76 -10 98 -40 211 -76 285 l-31 62 45 55 c73 90 91
181 60 299 l-17 62 31 49 c124 196 64 443 -162 666 -36 35 -66 68 -66 73 0 9
8 8 221 -23z m-1944 -42 c-3 -8 -6 -5 -6 6 -1 11 2 17 5 13 3 -3 4 -12 1 -19z
m1730 -43 c140 -146 203 -264 210 -390 6 -94 -16 -167 -73 -241 l-35 -45 21
-46 c14 -32 20 -67 20 -116 0 -89 -24 -141 -90 -200 l-48 -42 39 -65 c72 -118
105 -265 94 -425 -8 -119 -19 -175 -37 -186 -7 -5 -104 -9 -216 -9 l-202 0
-12 28 c-6 15 -13 93 -16 174 -3 113 -1 163 12 220 17 78 59 176 98 228 l22
31 -51 48 c-29 26 -61 67 -72 92 -28 60 -28 155 0 218 l20 49 -44 65 c-93 136
-87 262 20 387 41 47 147 130 168 130 8 0 15 -21 19 -57 4 -32 9 -79 12 -105
5 -45 4 -48 -29 -70 -53 -34 -90 -95 -83 -137 6 -40 27 -65 81 -96 59 -34 77
-35 85 -3 7 24 3 29 -41 57 -51 31 -60 52 -39 92 14 25 62 49 100 49 36 0 90
-47 90 -77 0 -10 -9 -38 -20 -62 -25 -55 -25 -55 7 -70 24 -11 29 -10 44 11
24 31 42 110 34 148 -13 58 -60 97 -137 114 -27 6 -28 9 -28 64 0 72 -17 166
-37 209 -14 30 -13 34 7 63 12 16 27 30 33 30 6 0 40 -29 74 -65z m-1812 23
c-14 -64 -43 -114 -98 -166 -53 -50 -181 -121 -194 -109 -3 4 7 32 22 64 46
94 205 241 263 243 10 0 12 -9 7 -32z m3950 -233 c77 -9 103 -23 115 -61 14
-42 5 -77 -18 -70 -9 2 -61 15 -115 27 l-99 22 -94 -94 -94 -94 -20 21 c-11
11 -23 37 -27 57 -5 33 -3 38 28 56 19 12 42 21 51 21 11 0 25 17 37 44 10 24
28 49 39 55 31 16 94 30 122 26 14 -2 48 -6 75 -10z m-4456 -97 c41 -102 51
-242 20 -288 -8 -13 -12 -12 -25 5 -31 39 -65 125 -71 179 -7 67 20 156 47
156 4 0 17 -24 29 -52z m379 -56 c-5 -66 -34 -130 -81 -181 -37 -38 -146 -115
-154 -108 -11 11 33 133 67 185 36 57 142 162 162 162 6 0 9 -22 6 -58z
m-1991 -9 c-3 -10 -5 -4 -5 12 0 17 2 24 5 18 2 -7 2 -21 0 -30z m2539 -319
c50 -131 155 -408 233 -614 78 -206 144 -376 146 -378 5 -5 85 8 353 59 117
22 219 39 226 36 12 -5 39 -164 30 -178 -2 -4 -48 -10 -101 -13 -125 -9 -379
-41 -558 -71 -108 -18 -143 -21 -151 -12 -11 11 -407 1020 -490 1245 -31 85
-33 94 -17 99 10 2 63 19 118 38 55 18 104 32 109 31 6 -1 51 -110 102 -242z
m2787 207 c53 -17 104 -31 112 -31 8 0 15 -4 15 -8 0 -8 -190 -499 -421 -1090
l-102 -264 -31 6 c-133 27 -543 82 -680 92 l-98 7 6 66 c10 95 16 121 30 121
6 0 106 -18 221 -40 280 -53 344 -64 350 -58 5 5 175 450 357 933 116 310 116
308 130 302 7 -2 57 -19 111 -36z m-3749 -302 c43 -78 75 -249 47 -249 -16 0
-90 92 -116 144 -27 55 -34 150 -14 188 11 20 12 20 35 -8 12 -16 34 -50 48
-75z m364 31 c4 -87 -34 -164 -120 -246 -56 -53 -63 -57 -66 -37 -6 42 18 139
53 208 37 76 98 149 118 142 7 -2 13 -28 15 -67z m4219 -31 c95 -31 127 -57
131 -104 5 -75 -5 -76 -127 -15 l-110 54 -111 -68 c-126 -76 -140 -76 -140 0
0 53 25 74 87 74 36 0 45 4 57 28 13 25 36 42 76 56 20 6 62 -1 137 -25z
m-4206 -291 c8 -18 14 -64 14 -103 -1 -79 -28 -145 -93 -224 -35 -43 -36 -43
-45 -20 -14 37 0 169 24 235 23 61 69 144 80 144 4 0 13 -15 20 -32z m-376
-105 c59 -60 108 -148 124 -220 11 -53 1 -55 -55 -14 -81 60 -129 130 -145
215 -17 94 -2 98 76 19z m4222 -99 c-3 -3 -12 -4 -19 -1 -8 3 -5 6 6 6 11 1
17 -2 13 -5z m277 -51 c50 -26 135 -91 152 -118 15 -23 15 -27 -3 -62 -11 -21
-28 -40 -37 -41 -11 -3 -47 25 -97 73 -54 53 -85 76 -97 73 -9 -3 -70 -20
-135 -38 -134 -38 -145 -36 -127 29 16 59 44 75 103 59 43 -11 48 -10 69 9 53
47 102 52 172 16z m-4026 -130 c39 -86 36 -164 -10 -264 -54 -116 -68 -116
-89 5 -10 53 -10 84 -1 136 14 79 49 180 63 180 6 0 22 -26 37 -57z m-162 -59
c-3 -9 -6 -21 -6 -27 0 -8 -3 -8 -11 0 -13 13 -5 43 12 43 6 0 8 -7 5 -16z
m-147 -134 c62 -62 127 -166 119 -190 -5 -16 -124 48 -179 97 -61 56 -98 136
-90 196 2 17 87 -42 150 -103z m486 -184 c33 -67 35 -188 4 -270 -11 -31 -24
-58 -29 -61 -14 -9 -59 99 -72 174 -9 55 -9 89 0 151 6 45 14 86 18 91 10 16
51 -28 79 -85z m3415 4 l38 -20 47 21 c43 19 52 20 93 8 48 -13 111 -71 164
-151 36 -53 35 -71 -7 -116 l-35 -37 -21 24 c-11 13 -41 60 -67 104 l-47 79
-147 -5 c-95 -4 -150 -3 -154 4 -18 29 38 109 76 109 11 0 38 -9 60 -20z
m-1613 -12 c11 -13 30 -38 43 -56 l22 -33 -23 -25 -24 -26 -225 4 c-124 2
-233 7 -242 12 -37 17 -27 54 35 124 20 21 26 22 207 22 181 0 187 -1 207 -22z
m-1990 -60 c-3 -8 -6 -5 -6 6 -1 11 2 17 5 13 3 -3 4 -12 1 -19z m-173 -96
c38 -20 96 -60 127 -90 59 -55 106 -118 95 -129 -17 -17 -195 59 -249 107 -38
33 -87 115 -87 145 0 21 23 14 114 -33z m2163 -54 c19 -26 53 -121 46 -132 -4
-6 -18 -26 -32 -43 l-26 -33 -196 0 -196 0 -31 39 c-18 22 -32 42 -32 46 0 3
13 35 29 70 l30 65 199 0 c148 0 202 -3 209 -12z m-1603 -62 c54 -63 72 -102
82 -173 7 -53 -12 -193 -26 -193 -18 0 -71 77 -96 139 -37 93 -48 281 -16 281
5 0 30 -24 56 -54z m2888 -130 c26 -26 38 -32 53 -25 33 13 94 10 126 -6 41
-22 82 -83 114 -169 25 -69 26 -75 11 -103 -16 -32 -82 -71 -97 -56 -4 4 -20
49 -34 98 -42 144 -33 136 -160 157 -139 24 -185 36 -185 50 0 5 17 28 39 49
51 51 87 52 133 5z m-1286 -130 l28 -53 -20 -34 -20 -34 -194 0 -194 0 -19 34
-20 33 26 54 27 54 179 0 179 0 28 -54z m-1925 15 c92 -31 174 -78 233 -131
31 -29 56 -56 56 -61 0 -25 -157 5 -245 46 -57 27 -118 83 -148 134 l-18 31
34 0 c19 0 58 -8 88 -19z m589 -25 c90 -65 140 -174 140 -301 0 -90 -9 -95
-67 -32 -76 82 -126 193 -139 307 -8 72 0 75 66 26z m2152 -163 c14 -16 30
-36 35 -46 8 -15 23 -19 66 -20 99 -3 147 -65 167 -214 9 -71 9 -87 -5 -113
-17 -33 -66 -60 -109 -60 l-25 0 -3 132 -3 132 -135 58 c-161 71 -169 76 -138
105 30 29 78 53 104 53 11 0 32 -12 46 -27z m-1275 -25 c-3 -8 -6 -5 -6 6 -1
11 2 17 5 13 3 -3 4 -12 1 -19z m438 -63 l7 -75 -92 -115 c-51 -63 -95 -115
-100 -115 -5 0 -50 52 -100 116 l-93 115 7 66 c4 37 9 70 12 75 3 4 83 8 178
8 l174 0 7 -75z m-1547 -61 c89 -18 184 -59 254 -111 37 -27 46 -38 36 -44 -8
-4 -68 -5 -134 0 -96 6 -130 12 -175 33 -56 26 -149 104 -149 126 0 17 75 15
168 -4z m275 -231 c-18 -2 -48 -2 -65 0 -18 2 -4 4 32 4 36 0 50 -2 33 -4z
m664 -269 c-3 -3 -12 -4 -19 -1 -8 3 -5 6 6 6 11 1 17 -2 13 -5z m1671 -367
l2 -208 -62 3 -63 3 -3 123 c-1 68 -7 122 -12 122 -5 0 -24 -9 -42 -20 -54
-33 -68 -27 -68 25 0 42 3 48 33 63 17 9 50 36 72 59 37 39 43 42 90 40 l50
-2 3 -208z m-2243 149 c26 -25 36 -42 33 -58 -3 -20 -10 -23 -51 -26 -41 -3
-52 1 -72 22 -26 28 -45 32 -63 14 -20 -20 -14 -27 46 -44 82 -24 126 -49 140
-79 19 -41 15 -99 -9 -129 -34 -43 -70 -56 -160 -56 l-81 0 -40 40 c-30 30
-39 45 -36 67 3 26 6 28 55 31 48 3 52 1 65 -25 11 -24 19 -28 53 -28 36 0 40
3 40 25 0 22 -8 28 -60 46 -93 32 -125 52 -140 88 -16 39 -10 72 19 105 30 34
51 40 143 40 80 1 82 0 118 -33z m278 -18 c8 -29 21 -77 29 -107 l14 -53 33
106 33 106 74 0 74 0 0 -195 0 -195 -44 0 c-31 0 -46 5 -50 16 -3 9 -6 61 -7
117 0 116 -6 111 -43 -38 l-23 -90 -34 -3 c-19 -1 -40 2 -47 6 -7 5 -28 62
-47 128 l-33 119 -1 -115 c-1 -63 -5 -121 -10 -128 -5 -8 -23 -12 -47 -10
l-39 3 -3 193 -2 192 79 0 80 0 14 -52z m641 -129 c36 -99 66 -187 66 -195 0
-11 -15 -14 -60 -14 -59 0 -61 1 -66 29 -5 25 -11 29 -51 35 -80 11 -88 9
-104 -26 -13 -30 -19 -33 -63 -36 -27 -2 -53 1 -58 6 -6 6 6 51 32 118 23 60
52 139 65 176 13 38 27 72 30 78 3 5 37 10 74 10 l68 0 67 -181z m292 83 l63
-94 3 94 3 93 58 3 57 3 0 -196 0 -195 -58 0 -58 0 -64 96 -65 96 -3 -96 -3
-96 -59 0 -60 0 0 195 0 196 61 -3 62 -3 63 -93z m568 -128 c14 -54 2 -64 -80
-64 -77 0 -80 2 -75 50 4 37 11 40 80 40 66 0 69 -1 75 -26z m-1942 -349 c61
-40 78 -77 78 -165 0 -91 -25 -143 -84 -176 -120 -68 -272 -16 -305 103 -33
119 11 220 113 260 49 20 152 8 198 -22z m2803 15 c20 -8 73 -86 63 -95 -2 -1
-29 -5 -60 -8 -47 -4 -58 -3 -58 9 0 18 -46 37 -71 29 -39 -13 -18 -35 51 -54
63 -19 116 -47 134 -73 36 -52 6 -142 -58 -172 -47 -22 -160 -21 -206 2 -39
19 -77 79 -67 105 5 13 19 17 56 17 42 0 52 -4 62 -22 7 -13 17 -26 23 -30 18
-13 63 -9 75 6 19 23 1 44 -52 62 -115 37 -147 65 -147 127 0 47 29 85 80 106
27 12 135 6 175 -9z m-3383 -57 l3 -67 53 67 54 67 79 0 c43 0 79 -4 79 -8 0
-4 -18 -26 -41 -47 -22 -22 -50 -52 -60 -67 l-20 -28 67 -111 c75 -125 74
-129 -13 -129 -61 0 -72 9 -114 91 -16 33 -33 59 -38 59 -20 0 -51 -59 -51
-98 0 -45 -10 -52 -70 -52 -29 0 -42 5 -50 19 -11 22 -13 130 -3 274 l6 97 58
0 58 0 3 -67z m1016 38 c2 -12 1 -34 -2 -46 -5 -21 -13 -24 -59 -27 l-52 -3
-5 -140 -5 -140 -52 0 c-29 1 -56 4 -60 9 -4 4 -9 68 -11 141 l-4 134 -56 3
-57 3 -3 48 -3 47 183 -2 183 -3 3 -24z m295 -148 c37 -97 66 -183 65 -192 -4
-18 -45 -26 -94 -17 -23 5 -34 13 -38 30 -5 20 -14 25 -63 31 -48 6 -59 4 -70
-11 -7 -10 -13 -23 -13 -30 0 -20 -92 -32 -118 -15 -11 6 -10 15 1 47 13 35
90 239 116 307 10 26 14 27 79 27 l68 0 67 -177z m548 167 c23 -13 49 -61 49
-92 0 -13 -7 -34 -16 -46 -14 -20 -13 -24 10 -55 25 -33 34 -85 20 -121 -3 -9
-22 -25 -41 -38 -29 -17 -56 -22 -139 -26 -56 -2 -118 -2 -138 2 l-36 7 0 189
0 190 136 0 c74 0 144 -5 155 -10z m419 -29 l0 -38 -91 -5 c-93 -6 -116 -15
-106 -42 5 -13 24 -16 97 -16 l90 0 0 -39 c0 -46 -10 -51 -112 -51 l-68 0 0
-29 c0 -29 0 -29 78 -36 42 -4 82 -6 87 -5 30 6 36 -1 33 -42 l-3 -43 -160 0
-160 0 -3 193 -2 192 160 0 160 0 0 -39z m168 -28 l3 -62 53 62 52 62 77 3
c52 2 77 -1 77 -8 0 -7 -27 -40 -60 -74 l-59 -62 55 -89 c30 -50 58 -91 63
-93 5 -2 18 21 29 50 76 202 97 255 105 266 7 9 31 12 75 10 l64 -3 69 -175
c38 -96 69 -180 69 -186 0 -16 -24 -24 -71 -24 -34 0 -43 5 -57 29 -19 33 -37
41 -100 41 -39 0 -44 -3 -53 -29 -13 -36 -29 -41 -157 -41 l-102 0 -37 74 -37
75 -28 -20 c-17 -12 -28 -30 -28 -43 0 -13 -3 -38 -6 -55 -6 -29 -9 -31 -49
-31 -79 0 -75 -9 -75 194 0 101 3 186 7 190 4 4 32 6 63 4 l55 -3 3 -62z
m1170 -122 c2 -141 -1 -186 -10 -193 -20 -12 -92 -10 -106 4 -13 13 -18 359
-5 372 4 4 32 6 63 4 l55 -3 3 -184z m-2641 -477 c-3 -3 -12 -4 -19 -1 -8 3
-5 6 6 6 11 1 17 -2 13 -5z m1216 -1 c-7 -2 -19 -2 -25 0 -7 3 -2 5 12 5 14 0
19 -2 13 -5z"/>
<path d="M3771 1689 c-7 -24 -15 -52 -17 -61 -4 -14 1 -18 25 -18 16 0 32 4
35 9 3 5 -2 32 -12 61 l-18 53 -13 -44z"/>
<path d="M2676 1189 c-22 -17 -26 -28 -26 -70 0 -52 12 -86 39 -106 40 -31 95
5 105 68 16 101 -49 162 -118 108z"/>
<path d="M3418 1130 c-10 -30 -16 -56 -14 -58 2 -2 17 -2 34 0 l30 3 -17 54
-16 54 -17 -53z"/>
<path d="M3960 1185 c0 -34 1 -35 39 -35 45 0 56 10 47 46 -5 20 -12 24 -46
24 -39 0 -40 -1 -40 -35z"/>
<path d="M3960 1036 c0 -33 3 -36 28 -36 55 0 73 11 70 39 -3 23 -8 26 -50 29
l-48 3 0 -35z"/>
<path d="M5167 1170 c-12 -33 -27 -83 -27 -91 0 -5 14 -9 30 -9 34 0 36 11 16
75 -8 25 -15 35 -19 25z"/>
</g>
</svg>
